<svg width="657.9px" height="120.8px" xmlns="http://www.w3.org/2000/svg" viewBox="-78.9375 14.600000000000001 657.875 120.8" style="background: rgba(0, 0, 0, 0)" preserveAspectRatio="xMidYMid"><defs>
  <filter id="editing-scratch" x="-100%" y="-100%" width="300%" height="300%">
    <!-- COLOR -->
    <feFlood flood-color="#ddd" flood-opacity="0.75" result="COLOR-blu"></feFlood>
    <feFlood flood-color="#666" flood-opacity="0.4" result="COLOR-red"></feFlood>
    <!-- COLOR END -->

    <!-- Texture -->
    <feTurbulence baseFrequency=".05" type="fractalNoise" numOctaves="3" seed="0" result="Texture_10"></feTurbulence>
    <feColorMatrix type="matrix" values="0 0 0 0 0,
    0 0 0 0 0,
    0 0 0 0 0,
    0 0 0 -2.1 1.1" in="Texture_10" result="Texture_20"></feColorMatrix>

    <feColorMatrix result="Texture_30" type="matrix" values="0 0 0 0 0,
    0 0 0 0 0,
    0 0 0 0 0,
    0 0 0 -1.7 1.8" in="Texture_10"></feColorMatrix>
    <!-- Texture -->

    <!-- FILL -->
    <feOffset dx="-3" dy="4" in="SourceAlpha" result="FILL_10"></feOffset>
    <feDisplacementMap scale="17" in="FILL_10" in2="Texture_10" result="FILL_20"></feDisplacementMap>
    <feComposite operator="in" in="Texture_30" in2="FILL_20" result="FILL_40"></feComposite>
    <feComposite operator="in" in="COLOR-blu" in2="FILL_40" result="FILL_50"></feComposite>
    <!-- FILL END-->

    <!-- OUTLINE -->
    <feMorphology operator="dilate" radius="3" in="SourceGraphic" result="OUTLINE_10"></feMorphology>
    <feComposite operator="out" in="OUTLINE_10" in2="SourceGraphic" result="OUTLINE_20"></feComposite>
    <feDisplacementMap scale="7" in="OUTLINE_20" in2="Texture_10" result="OUTLINE_30"></feDisplacementMap>
    <feComposite operator="arithmetic" k2="-1" k3="1" in="Texture_20" in2="OUTLINE_30" result="OUTLINE_40"></feComposite>
    <!-- OUTLINE END-->

    <!-- BEVEL OUTLINE -->
    <feConvolveMatrix order="8,8" divisor="1" kernelMatrix="1 0 0 0 0 0 0 0 0 1 0 0 0 0 0 0 0 0 1 0 0 0 0 0 0 0 0 1 0 0 0 0 0 0 0 0 1 0 0 0 0 0 0 0 0 1 0 0 0 0 0 0 0 0 1 0 0 0 0 0 0 0 0 1 " in="SourceGraphic" result="BEVEL_10"></feConvolveMatrix>
    <feMorphology operator="dilate" radius="2" in="BEVEL_10" result="BEVEL_20"></feMorphology>
    <feComposite operator="out" in="BEVEL_20" in2="BEVEL_10" result="BEVEL_30"></feComposite>
    <feDisplacementMap scale="7" in="BEVEL_30" in2="Texture_10" result="BEVEL_40"></feDisplacementMap>
    <feComposite operator="arithmetic" k2="-1" k3="1" in="Texture_20" in2="BEVEL_40" result="BEVEL_50"></feComposite>
    <feOffset dx="-7" dy="-7" in="BEVEL_50" result="BEVEL_60"></feOffset>
    <feComposite operator="out" in="BEVEL_60" in2="OUTLINE_10" result="BEVEL_70"></feComposite>
    <!-- BEVEL OUTLINE END -->

    <!-- BEVEL FILL -->
    <feOffset dx="-9" dy="-9" in="BEVEL_10" result="BEVEL-FILL_10"></feOffset>
    <feComposite operator="out" in="BEVEL-FILL_10" in2="OUTLINE_10" result="BEVEL-FILL_20"></feComposite>
    <feDisplacementMap scale="17" in="BEVEL-FILL_20" in2="Texture_10" result="BEVEL-FILL_30"></feDisplacementMap>
    <feComposite operator="in" in="COLOR-red" in2="BEVEL-FILL_30" result="BEVEL-FILL_50"></feComposite> <!-- -->
    <!-- BEVEL FILL END-->

    <feMerge result="merge2">
     <feMergeNode in="BEVEL-FILL_50"></feMergeNode>
     <feMergeNode in="BEVEL_70"></feMergeNode>
     <feMergeNode in="FILL_50"></feMergeNode>
      <feMergeNode in="OUTLINE_40"></feMergeNode>
    </feMerge>
  </filter>
</defs>
<g filter="url(#editing-scratch)"><g transform="matrix(1.4,0,0,1.7,-53.6,203.3)"><path d="M 9.4 -58.7 L -4.6 -58.7 L 3.5 -101 L 17.6 -101 L 9.4 -58.7 Z M 65.1 -57.4 L 65.1 -57.4 L 65.1 -57.4 Q 57.4 -57.4 57.4 -63.5 L 57.4 -63.5 L 57.4 -63.5 Q 57.4 -66.1 58.5 -71.2 L 58.5 -71.2 L 58.5 -71.2 Q 59.6 -76.3 60 -78.3 L 60 -78.3 L 60 -78.3 Q 60.9 -83 60.9 -84.4 L 60.9 -84.4 L 60.9 -84.4 Q 60.9 -87.7 58.4 -87.7 L 58.4 -87.7 L 58.4 -87.7 Q 56.8 -87.7 55.3 -85.5 L 55.3 -85.5 L 55.3 -85.5 Q 53.8 -83.3 53.1 -78.9 L 53.1 -78.9 L 49.1 -58.7 L 36.6 -57.4 L 40.1 -74.8 L 40.1 -74.8 Q 40.6 -77.7 41.2 -81 L 41.2 -81 L 41.2 -81 Q 41.7 -84.3 41.7 -84.8 L 41.7 -84.8 L 41.7 -84.8 Q 41.7 -87.7 39.5 -87.7 L 39.5 -87.7 L 39.5 -87.7 Q 38 -87.7 36.4 -85.5 L 36.4 -85.5 L 36.4 -85.5 Q 34.8 -83.4 33.9 -78.9 L 33.9 -78.9 L 30 -58.7 L 17.4 -57.4 L 24.1 -91.4 L 34.6 -92.6 L 33.5 -86.2 L 33.5 -86.2 Q 35.1 -89.6 38.2 -91.1 L 38.2 -91.1 L 38.2 -91.1 Q 41.3 -92.6 46.1 -92.6 L 46.1 -92.6 L 46.1 -92.6 Q 48.8 -92.6 50.6 -91.3 L 50.6 -91.3 L 50.6 -91.3 Q 52.4 -89.9 53 -87.8 L 53 -87.8 L 53 -87.8 Q 54.1 -90 56.9 -91.3 L 56.9 -91.3 L 56.9 -91.3 Q 59.7 -92.6 63.1 -92.6 L 63.1 -92.6 L 63.1 -92.6 Q 66.5 -92.6 68.2 -91.9 L 68.2 -91.9 L 68.2 -91.9 Q 69.9 -91.2 70.9 -89.9 L 70.9 -89.9 L 70.9 -89.9 Q 72.6 -87.7 72.6 -83.6 L 72.6 -83.6 L 72.6 -83.6 Q 72.6 -79.6 70.9 -71.2 L 70.9 -71.2 L 70.9 -71.2 Q 70 -67.1 70 -65.6 L 70 -65.6 L 70 -65.6 Q 70 -64.1 70.9 -63.2 L 70.9 -63.2 L 70.9 -63.2 Q 71.8 -62.3 73 -62.2 L 73 -62.2 L 73 -62.2 Q 72.4 -60 70.2 -58.7 L 70.2 -58.7 L 70.2 -58.7 Q 68 -57.4 65.1 -57.4 Z M 80.7 -60.6 L 80.7 -60.6 L 80.7 -60.6 Q 79.2 -62.3 78.6 -64.9 L 78.6 -64.9 L 78.6 -64.9 Q 77.9 -67.5 77.9 -71.8 L 77.9 -71.8 L 77.9 -71.8 Q 77.9 -76.1 79.4 -80 L 79.4 -80 L 79.4 -80 Q 80.8 -83.9 83.5 -86.7 L 83.5 -86.7 L 83.5 -86.7 Q 89 -92.6 98.1 -92.6 L 98.1 -92.6 L 98.1 -92.6 Q 101.4 -92.6 103.8 -91.5 L 103.8 -91.5 L 114.7 -92.6 L 110 -67.7 L 110 -67.7 Q 109.8 -66.9 109.8 -65.5 L 109.8 -65.5 L 109.8 -65.5 Q 109.8 -64.1 110.6 -63.2 L 110.6 -63.2 L 110.6 -63.2 Q 111.5 -62.3 112.8 -62.2 L 112.8 -62.2 L 112.8 -62.2 Q 112.1 -60 109.8 -58.7 L 109.8 -58.7 L 109.8 -58.7 Q 107.5 -57.4 104.8 -57.4 L 104.8 -57.4 L 104.8 -57.4 Q 102.2 -57.4 100.5 -58.4 L 100.5 -58.4 L 100.5 -58.4 Q 98.7 -59.4 98.2 -61.1 L 98.2 -61.1 L 98.2 -61.1 Q 97.2 -59.5 95 -58.5 L 95 -58.5 L 95 -58.5 Q 92.8 -57.4 89.9 -57.4 L 89.9 -57.4 L 89.9 -57.4 Q 87 -57.4 84.6 -58.2 L 84.6 -58.2 L 84.6 -58.2 Q 82.2 -59 80.7 -60.6 Z M 94.2 -86.6 L 94.2 -86.6 L 94.2 -86.6 Q 93.5 -85.5 92.9 -83.5 L 92.9 -83.5 L 92.9 -83.5 Q 92.2 -81.6 91.2 -76.3 L 91.2 -76.3 L 91.2 -76.3 Q 90.1 -71.1 90.1 -67.4 L 90.1 -67.4 L 90.1 -67.4 Q 90.1 -63.7 90.7 -62.6 L 90.7 -62.6 L 90.7 -62.6 Q 91.3 -61.5 92.3 -61.5 L 92.3 -61.5 L 92.3 -61.5 Q 94.3 -61.5 95.8 -63.5 L 95.8 -63.5 L 95.8 -63.5 Q 97.4 -65.4 97.9 -68.9 L 97.9 -68.9 L 101.3 -87.6 L 101.3 -87.6 Q 100 -88.8 98.4 -88.8 L 98.4 -88.8 L 98.4 -88.8 Q 96.8 -88.8 95.9 -88.3 L 95.9 -88.3 L 95.9 -88.3 Q 95 -87.8 94.2 -86.6 Z M 122.4 -85.5 L 122.4 -85.5 L 122.4 -85.5 Q 124.6 -88.5 127.9 -90.6 L 127.9 -90.6 L 127.9 -90.6 Q 131.2 -92.6 135.2 -92.6 L 135.2 -92.6 L 135.2 -92.6 Q 139.3 -92.6 141.2 -91.4 L 141.2 -91.4 L 153.7 -92.6 L 149.4 -68.1 L 149.4 -68.1 Q 147.1 -55.5 142.4 -50.6 L 142.4 -50.6 L 142.4 -50.6 Q 137.9 -45.9 129 -45.9 L 129 -45.9 L 129 -45.9 Q 122.3 -45.9 118.5 -48 L 118.5 -48 L 118.5 -48 Q 114.6 -50.1 114.6 -53.7 L 114.6 -53.7 L 114.6 -53.7 Q 114.6 -56.3 116.6 -57.8 L 116.6 -57.8 L 116.6 -57.8 Q 118.6 -59.3 121.7 -59.3 L 121.7 -59.3 L 121.7 -59.3 Q 124.4 -59.3 126.4 -58.1 L 126.4 -58.1 L 126.4 -58.1 Q 127.6 -57.4 128.2 -56.5 L 128.2 -56.5 L 128.2 -56.5 Q 126.7 -55.3 126.7 -53.1 L 126.7 -53.1 L 126.7 -53.1 Q 126.7 -50.4 129.3 -50.4 L 129.3 -50.4 L 129.3 -50.4 Q 133.6 -50.4 136 -60.5 L 136 -60.5 L 136 -60.5 Q 136.7 -63.3 137.3 -66 L 137.3 -66 L 137.3 -66 Q 134.4 -62.5 127.9 -62.5 L 127.9 -62.5 L 127.9 -62.5 Q 123.3 -62.5 120.7 -64.7 L 120.7 -64.7 L 120.7 -64.7 Q 118.1 -66.8 118.1 -72 L 118.1 -72 L 118.1 -72 Q 118.1 -75.2 119.2 -78.8 L 119.2 -78.8 L 119.2 -78.8 Q 120.3 -82.4 122.4 -85.5 Z M 130.8 -71.8 L 130.8 -71.8 L 130.8 -71.8 Q 130.8 -67.4 133 -67.4 L 133 -67.4 L 133 -67.4 Q 134.5 -67.4 136 -69.1 L 136 -69.1 L 136 -69.1 Q 137.2 -70.4 137.6 -72.4 L 137.6 -72.4 L 140.9 -88.9 L 140.9 -88.9 Q 140.6 -88.9 140.2 -89.1 L 140.2 -89.1 L 140.2 -89.1 Q 139.6 -89.3 138.8 -89.3 L 138.8 -89.3 L 138.8 -89.3 Q 134.9 -89.3 132.6 -82.9 L 132.6 -82.9 L 132.6 -82.9 Q 130.8 -77.9 130.8 -71.8 Z M 182.2 -69.5 L 182.2 -69.5 L 182.2 -69.5 Q 183.8 -68.4 183.8 -66 L 183.8 -66 L 183.8 -66 Q 183.8 -63.6 182.5 -62.1 L 182.5 -62.1 L 182.5 -62.1 Q 181.3 -60.6 179.3 -59.5 L 179.3 -59.5 L 179.3 -59.5 Q 175.2 -57.4 170.8 -57.4 L 170.8 -57.4 L 170.8 -57.4 Q 166.4 -57.4 163.8 -58.4 L 163.8 -58.4 L 163.8 -58.4 Q 161.2 -59.4 159.5 -61.1 L 159.5 -61.1 L 159.5 -61.1 Q 156.1 -64.5 156.1 -70.7 L 156.1 -70.7 L 156.1 -70.7 Q 156.1 -80.4 161.4 -86.3 L 161.4 -86.3 L 161.4 -86.3 Q 167 -92.6 176.8 -92.6 L 176.8 -92.6 L 176.8 -92.6 Q 182.9 -92.6 185.9 -90.1 L 185.9 -90.1 L 185.9 -90.1 Q 188.1 -88.2 188.1 -85 L 188.1 -85 L 188.1 -85 Q 188.1 -73.8 168.6 -73.8 L 168.6 -73.8 L 168.6 -73.8 Q 168.4 -72.1 168.4 -70.7 L 168.4 -70.7 L 168.4 -70.7 Q 168.4 -67.7 169.7 -66.6 L 169.7 -66.6 L 169.7 -66.6 Q 171 -65.5 173.4 -65.5 L 173.4 -65.5 L 173.4 -65.5 Q 175.9 -65.5 178.5 -66.6 L 178.5 -66.6 L 178.5 -66.6 Q 181.1 -67.7 182.2 -69.5 Z M 169.1 -76.5 L 169.1 -76.5 L 169.1 -76.5 Q 173.6 -76.5 176.3 -79.3 L 176.3 -79.3 L 176.3 -79.3 Q 178.9 -82 178.9 -86.3 L 178.9 -86.3 L 178.9 -86.3 Q 178.9 -87.8 178.3 -88.6 L 178.3 -88.6 L 178.3 -88.6 Q 177.8 -89.4 176.7 -89.4 L 176.7 -89.4 L 176.7 -89.4 Q 175.6 -89.4 174.7 -89 L 174.7 -89 L 174.7 -89 Q 173.8 -88.5 172.8 -87.1 L 172.8 -87.1 L 172.8 -87.1 Q 170.4 -83.9 169.1 -76.5 Z M 209.4 -81.2 L 209.4 -81.2 L 209.4 -81.2 Q 210.3 -83.5 210.3 -85.6 L 210.3 -85.6 L 210.3 -85.6 Q 210.3 -89.4 207.2 -89.4 L 207.2 -89.4 L 207.2 -89.4 Q 205.6 -89.4 204.3 -87.9 L 204.3 -87.9 L 204.3 -87.9 Q 203 -86.5 203 -84.7 L 203 -84.7 L 203 -84.7 Q 203 -83.4 204 -82.4 L 204 -82.4 L 204 -82.4 Q 205.5 -81 209.3 -78.7 L 209.3 -78.7 L 209.3 -78.7 Q 213.1 -76.4 214.5 -74.5 L 214.5 -74.5 L 214.5 -74.5 Q 215.9 -72.6 215.9 -70 L 215.9 -70 L 215.9 -70 Q 215.9 -67.4 214.7 -65.1 L 214.7 -65.1 L 214.7 -65.1 Q 213.4 -62.7 211.2 -61 L 211.2 -61 L 211.2 -61 Q 206.4 -57.4 198.7 -57.4 L 198.7 -57.4 L 198.7 -57.4 Q 194.6 -57.4 191.4 -59.6 L 191.4 -59.6 L 191.4 -59.6 Q 188.2 -61.7 188.2 -64.2 L 188.2 -64.2 L 188.2 -64.2 Q 188.2 -66.7 190 -68.2 L 190 -68.2 L 190 -68.2 Q 191.8 -69.7 194.5 -69.7 L 194.5 -69.7 L 194.5 -69.7 Q 197.2 -69.7 198.9 -68.6 L 198.9 -68.6 L 198.9 -68.6 Q 198 -66.5 198 -65.1 L 198 -65.1 L 198 -65.1 Q 198 -60.9 201.6 -60.9 L 201.6 -60.9 L 201.6 -60.9 Q 203.1 -60.9 204.2 -61.9 L 204.2 -61.9 L 204.2 -61.9 Q 205.2 -62.8 205.2 -64.5 L 205.2 -64.5 L 205.2 -64.5 Q 205.2 -67.7 199.7 -71.2 L 199.7 -71.2 L 199.7 -71.2 Q 195.2 -74.1 194.2 -75.3 L 194.2 -75.3 L 194.2 -75.3 Q 192.5 -77.3 192.5 -79.9 L 192.5 -79.9 L 192.5 -79.9 Q 192.5 -82.5 193.7 -84.9 L 193.7 -84.9 L 193.7 -84.9 Q 194.9 -87.3 197.1 -89.1 L 197.1 -89.1 L 197.1 -89.1 Q 201.8 -92.6 209.9 -92.6 L 209.9 -92.6 L 209.9 -92.6 Q 214.1 -92.6 216.6 -91 L 216.6 -91 L 216.6 -91 Q 219 -89.3 219 -86.5 L 219 -86.5 L 219 -86.5 Q 219 -83.7 217.3 -82.1 L 217.3 -82.1 L 217.3 -82.1 Q 215.6 -80.5 212.6 -80.5 L 212.6 -80.5 L 212.6 -80.5 Q 210.4 -80.5 209.4 -81.2 Z M 260.5 -79.3 L 273.4 -80.5 L 273.4 -80.5 Q 268.8 -70.4 268.8 -58.7 L 268.8 -58.7 L 268.8 -58.7 Q 267.1 -57.4 264.6 -57.4 L 264.6 -57.4 L 264.6 -57.4 Q 262 -57.4 260.4 -58.6 L 260.4 -58.6 L 260.4 -58.6 Q 258.8 -59.8 258.5 -61 L 258.5 -61 L 258.5 -61 Q 256.9 -59.4 254.3 -58.4 L 254.3 -58.4 L 254.3 -58.4 Q 251.7 -57.4 249 -57.4 L 249 -57.4 L 249 -57.4 Q 246.2 -57.4 243.8 -58.3 L 243.8 -58.3 L 243.8 -58.3 Q 241.4 -59.2 239.6 -61.2 L 239.6 -61.2 L 239.6 -61.2 Q 235.5 -65.6 235.5 -73.8 L 235.5 -73.8 L 235.5 -73.8 Q 235.5 -86.6 242.3 -94.3 L 242.3 -94.3 L 242.3 -94.3 Q 249.4 -102.2 261.8 -102.2 L 261.8 -102.2 L 261.8 -102.2 Q 270.5 -102.2 273.5 -97.8 L 273.5 -97.8 L 273.5 -97.8 Q 274.5 -96.3 274.5 -94.7 L 274.5 -94.7 L 274.5 -94.7 Q 274.5 -93 273.8 -91.5 L 273.8 -91.5 L 273.8 -91.5 Q 273 -90.1 271.9 -88.9 L 271.9 -88.9 L 271.9 -88.9 Q 269.1 -86.4 265.7 -86.4 L 265.7 -86.4 L 265.7 -86.4 Q 264.4 -86.4 263.1 -86.8 L 263.1 -86.8 L 263.1 -86.8 Q 263.4 -88.7 263.4 -91 L 263.4 -91 L 263.4 -91 Q 263.4 -93.2 263.2 -94.2 L 263.2 -94.2 L 263.2 -94.2 Q 263 -95.3 262.7 -96.1 L 262.7 -96.1 L 262.7 -96.1 Q 261.8 -97.8 260 -97.8 L 260 -97.8 L 260 -97.8 Q 258.2 -97.8 256.2 -95.9 L 256.2 -95.9 L 256.2 -95.9 Q 254.2 -93.9 252.6 -90.7 L 252.6 -90.7 L 252.6 -90.7 Q 249 -83.5 249 -74.9 L 249 -74.9 L 249 -74.9 Q 249 -70.9 250.6 -68.1 L 250.6 -68.1 L 250.6 -68.1 Q 252.2 -65.1 255.2 -65.1 L 255.2 -65.1 L 255.2 -65.1 Q 256.2 -65.1 257.1 -65.6 L 257.1 -65.6 L 257.1 -65.6 Q 258.1 -66.1 258.4 -66.5 L 258.4 -66.5 L 260.5 -79.3 Z M 279.3 -60.6 L 279.3 -60.6 L 279.3 -60.6 Q 277.8 -62.3 277.2 -64.9 L 277.2 -64.9 L 277.2 -64.9 Q 276.5 -67.5 276.5 -71.8 L 276.5 -71.8 L 276.5 -71.8 Q 276.5 -76.1 278 -80 L 278 -80 L 278 -80 Q 279.4 -83.9 282.1 -86.7 L 282.1 -86.7 L 282.1 -86.7 Q 287.6 -92.6 296.7 -92.6 L 296.7 -92.6 L 296.7 -92.6 Q 300 -92.6 302.3 -91.5 L 302.3 -91.5 L 313.3 -92.6 L 308.6 -67.7 L 308.6 -67.7 Q 308.4 -66.9 308.4 -65.5 L 308.4 -65.5 L 308.4 -65.5 Q 308.4 -64.1 309.2 -63.2 L 309.2 -63.2 L 309.2 -63.2 Q 310.1 -62.3 311.4 -62.2 L 311.4 -62.2 L 311.4 -62.2 Q 310.7 -60 308.4 -58.7 L 308.4 -58.7 L 308.4 -58.7 Q 306.1 -57.4 303.4 -57.4 L 303.4 -57.4 L 303.4 -57.4 Q 300.8 -57.4 299 -58.4 L 299 -58.4 L 299 -58.4 Q 297.3 -59.4 296.8 -61.1 L 296.8 -61.1 L 296.8 -61.1 Q 295.8 -59.5 293.6 -58.5 L 293.6 -58.5 L 293.6 -58.5 Q 291.4 -57.4 288.5 -57.4 L 288.5 -57.4 L 288.5 -57.4 Q 285.6 -57.4 283.2 -58.2 L 283.2 -58.2 L 283.2 -58.2 Q 280.8 -59 279.3 -60.6 Z M 292.8 -86.6 L 292.8 -86.6 L 292.8 -86.6 Q 292.1 -85.5 291.5 -83.5 L 291.5 -83.5 L 291.5 -83.5 Q 290.8 -81.6 289.8 -76.3 L 289.8 -76.3 L 289.8 -76.3 Q 288.7 -71.1 288.7 -67.4 L 288.7 -67.4 L 288.7 -67.4 Q 288.7 -63.7 289.3 -62.6 L 289.3 -62.6 L 289.3 -62.6 Q 289.9 -61.5 290.9 -61.5 L 290.9 -61.5 L 290.9 -61.5 Q 292.9 -61.5 294.4 -63.5 L 294.4 -63.5 L 294.4 -63.5 Q 295.9 -65.4 296.5 -68.9 L 296.5 -68.9 L 299.9 -87.6 L 299.9 -87.6 Q 298.6 -88.8 297 -88.8 L 297 -88.8 L 297 -88.8 Q 295.4 -88.8 294.5 -88.3 L 294.5 -88.3 L 294.5 -88.3 Q 293.6 -87.8 292.8 -86.6 Z M 332 -62.2 L 332 -62.2 L 332 -62.2 Q 330.1 -57.4 323.7 -57.4 L 323.7 -57.4 L 323.7 -57.4 Q 320.5 -57.4 318.5 -59.7 L 318.5 -59.7 L 318.5 -59.7 Q 316.8 -61.5 316.8 -63.6 L 316.8 -63.6 L 316.8 -63.6 Q 316.8 -68.4 319 -78.9 L 319 -78.9 L 323.7 -103.5 L 336.7 -104.8 L 330.5 -72.4 L 330.5 -72.4 Q 329.4 -67.7 329.4 -66 L 329.4 -66 L 329.4 -66 Q 329.4 -62.4 332 -62.2 Z M 352.8 -62.2 L 352.8 -62.2 L 352.8 -62.2 Q 350.8 -57.4 344.5 -57.4 L 344.5 -57.4 L 344.5 -57.4 Q 341.3 -57.4 339.2 -59.7 L 339.2 -59.7 L 339.2 -59.7 Q 337.5 -61.5 337.5 -63.6 L 337.5 -63.6 L 337.5 -63.6 Q 337.5 -68.4 339.8 -78.9 L 339.8 -78.9 L 344.5 -103.5 L 357.4 -104.8 L 351.2 -72.4 L 351.2 -72.4 Q 350.2 -67.7 350.2 -66 L 350.2 -66 L 350.2 -66 Q 350.2 -62.4 352.8 -62.2 Z M 384.1 -69.5 L 384.1 -69.5 L 384.1 -69.5 Q 385.7 -68.4 385.7 -66 L 385.7 -66 L 385.7 -66 Q 385.7 -63.6 384.5 -62.1 L 384.5 -62.1 L 384.5 -62.1 Q 383.3 -60.6 381.3 -59.5 L 381.3 -59.5 L 381.3 -59.5 Q 377.2 -57.4 372.8 -57.4 L 372.8 -57.4 L 372.8 -57.4 Q 368.4 -57.4 365.8 -58.4 L 365.8 -58.4 L 365.8 -58.4 Q 363.2 -59.4 361.5 -61.1 L 361.5 -61.1 L 361.5 -61.1 Q 358.1 -64.5 358.1 -70.7 L 358.1 -70.7 L 358.1 -70.7 Q 358.1 -80.4 363.3 -86.3 L 363.3 -86.3 L 363.3 -86.3 Q 369 -92.6 378.8 -92.6 L 378.8 -92.6 L 378.8 -92.6 Q 384.8 -92.6 387.8 -90.1 L 387.8 -90.1 L 387.8 -90.1 Q 390.1 -88.2 390.1 -85 L 390.1 -85 L 390.1 -85 Q 390.1 -73.8 370.6 -73.8 L 370.6 -73.8 L 370.6 -73.8 Q 370.4 -72.1 370.4 -70.7 L 370.4 -70.7 L 370.4 -70.7 Q 370.4 -67.7 371.7 -66.6 L 371.7 -66.6 L 371.7 -66.6 Q 373 -65.5 375.4 -65.5 L 375.4 -65.5 L 375.4 -65.5 Q 377.9 -65.5 380.5 -66.6 L 380.5 -66.6 L 380.5 -66.6 Q 383 -67.7 384.1 -69.5 Z M 371.1 -76.5 L 371.1 -76.5 L 371.1 -76.5 Q 375.6 -76.5 378.2 -79.3 L 378.2 -79.3 L 378.2 -79.3 Q 380.9 -82 380.9 -86.3 L 380.9 -86.3 L 380.9 -86.3 Q 380.9 -87.8 380.3 -88.6 L 380.3 -88.6 L 380.3 -88.6 Q 379.8 -89.4 378.7 -89.4 L 378.7 -89.4 L 378.7 -89.4 Q 377.6 -89.4 376.7 -89 L 376.7 -89 L 376.7 -89 Q 375.8 -88.5 374.8 -87.1 L 374.8 -87.1 L 374.8 -87.1 Q 372.4 -83.9 371.1 -76.5 Z M 412.3 -76.7 L 412.3 -76.7 L 412.3 -76.7 Q 414.6 -80.8 414.6 -85 L 414.6 -85 L 414.6 -85 Q 414.6 -87.7 412.6 -87.7 L 412.6 -87.7 L 412.6 -87.7 Q 411.1 -87.7 409.5 -85.1 L 409.5 -85.1 L 409.5 -85.1 Q 407.8 -82.5 407.3 -79.1 L 407.3 -79.1 L 404 -58.7 L 390.7 -57.4 L 397.3 -91.4 L 407.8 -92.6 L 406.7 -86.2 L 406.7 -86.2 Q 409.8 -92.6 416.8 -92.6 L 416.8 -92.6 L 416.8 -92.6 Q 420.6 -92.6 422.6 -90.7 L 422.6 -90.7 L 422.6 -90.7 Q 424.6 -88.8 424.6 -84.9 L 424.6 -84.9 L 424.6 -84.9 Q 424.6 -80.9 422 -78.4 L 422 -78.4 L 422 -78.4 Q 419.4 -75.9 415 -75.9 L 415 -75.9 L 415 -75.9 Q 413.1 -75.9 412.3 -76.7 Z M 446 -65.9 L 446 -65.9 L 446 -65.9 Q 442.6 -62.5 436.6 -62.5 L 436.6 -62.5 L 436.6 -62.5 Q 428.9 -62.5 427.3 -68.1 L 427.3 -68.1 L 427.3 -68.1 Q 426.8 -69.7 426.8 -71.6 L 426.8 -71.6 L 426.8 -71.6 Q 426.8 -73.4 427.2 -75.4 L 427.2 -75.4 L 430.2 -91.4 L 443.2 -92.6 L 439.7 -74 L 439.7 -74 Q 439.6 -73.2 439.4 -72.3 L 439.4 -72.3 L 439.4 -72.3 Q 439.2 -71.4 439.2 -70.5 L 439.2 -70.5 L 439.2 -70.5 Q 439.2 -69.5 439.5 -68.9 L 439.5 -68.9 L 439.5 -68.9 Q 439.8 -68.3 440.3 -67.9 L 440.3 -67.9 L 440.3 -67.9 Q 441 -67.4 442.4 -67.4 L 442.4 -67.4 L 442.4 -67.4 Q 443.8 -67.4 445 -69.1 L 445 -69.1 L 445 -69.1 Q 446.2 -70.7 446.7 -73.6 L 446.7 -73.6 L 450.2 -91.4 L 462.9 -92.6 L 458.1 -67.5 L 458.1 -67.5 Q 455.7 -55.2 450.8 -50.3 L 450.8 -50.3 L 450.8 -50.3 Q 448.3 -47.8 445.1 -46.8 L 445.1 -46.8 L 445.1 -46.8 Q 441.9 -45.9 437.7 -45.9 L 437.7 -45.9 L 437.7 -45.9 Q 431 -45.9 427.1 -48 L 427.1 -48 L 427.1 -48 Q 423.3 -50.1 423.3 -53.6 L 423.3 -53.6 L 423.3 -53.6 Q 423.3 -56.2 425.3 -57.7 L 425.3 -57.7 L 425.3 -57.7 Q 427.3 -59.2 430.3 -59.2 L 430.3 -59.2 L 430.3 -59.2 Q 433 -59.2 435.1 -58.1 L 435.1 -58.1 L 435.1 -58.1 Q 436.3 -57.4 436.9 -56.5 L 436.9 -56.5 L 436.9 -56.5 Q 435.4 -55.2 435.4 -53.1 L 435.4 -53.1 L 435.4 -53.1 Q 435.4 -50.3 438 -50.3 L 438 -50.3 L 438 -50.3 Q 442.2 -50.3 444.6 -60 L 444.6 -60 L 444.6 -60 Q 445.3 -62.9 446 -65.9 Z" fill="#000000"></path></g></g><style>text {
  font-size: 64px;
  font-family: Arial Black;
  dominant-baseline: central;
  text-anchor: middle;
}</style></svg>